<svg width="2214" height="2290" viewBox="0 0 2214 2290" fill="none" xmlns="http://www.w3.org/2000/svg">
<path d="M418.322 317.167C417.822 376.61 370.895 424.38 313.499 423.865C256.103 423.349 209.978 374.745 210.478 315.302C210.973 255.865 257.905 208.094 315.301 208.61C372.692 209.125 418.817 257.729 418.322 317.167ZM632.942 315.834C632.327 221.875 591.666 129.125 514.499 66.9585C380.739 -40.7915 187.968 -15.8436 83.9261 122.682C-20.1156 261.214 3.97815 460.86 137.733 568.61C212.489 628.834 305.681 647.589 391.515 628.245C437.603 952.427 483.686 1276.61 529.775 1600.79L682.166 1397.89C641.994 1105.73 601.817 813.568 561.645 521.412C856.145 474.938 1150.65 428.459 1445.15 381.985L1606.31 167.412C1281.85 216.886 957.4 266.36 632.942 315.834Z" fill="#2C3588"/>
<path d="M404.561 1961.51C404.066 2020.95 357.134 2068.72 299.743 2068.2C242.347 2067.69 196.222 2019.08 196.717 1959.65C197.217 1900.2 244.144 1852.43 301.54 1852.95C358.936 1853.46 405.061 1902.07 404.561 1961.51ZM1347.73 1585.51C1065.86 1628.76 783.993 1672.01 502.129 1715.26C455.597 1410.52 409.061 1105.78 362.535 801.042L154.441 635.349C204.04 971.094 253.634 1306.83 303.233 1642.58C212.514 1643.74 123.186 1686.38 63.5973 1766.65C-39.6891 1905.78 -14.512 2105.29 119.826 2212.26C254.165 2319.22 446.8 2293.15 550.087 2154.02C607.816 2076.26 625.399 1979.64 606.238 1890.85C918.993 1841.3 1231.75 1791.74 1544.5 1742.19L1347.73 1585.51Z" fill="#2E9DD3"/>
<path d="M2016.68 337.583C2016.19 397.026 1969.26 444.797 1911.86 444.281C1854.47 443.766 1808.34 395.161 1808.84 335.719C1809.34 276.281 1856.27 228.51 1913.66 229.026C1971.06 229.542 2017.18 278.146 2016.68 337.583ZM2093.29 89.9583C1958.86 -16.8906 1766.25 9.35935 1663.08 148.583C1605.42 226.401 1587.92 323.031 1607.15 411.797C1294.44 461.641 981.729 511.479 669.016 561.318L865.922 717.823C1147.75 674.312 1429.58 630.807 1711.41 587.297C1758.2 891.995 1804.99 1196.69 1851.78 1501.39L2060.02 1666.89C2010.13 1331.19 1960.25 995.495 1910.37 659.802C2001.08 658.552 2090.38 615.839 2149.9 535.51C2253.07 396.286 2227.72 196.802 2093.29 89.9583Z" fill="#2E9DD3"/>
<path d="M2005.56 1975.5C2005.06 2034.94 1958.13 2082.71 1900.74 2082.2C1843.34 2081.68 1797.22 2033.08 1797.72 1973.64C1798.21 1914.2 1845.14 1866.43 1902.54 1866.94C1959.93 1867.46 2006.06 1916.06 2005.56 1975.5ZM1829.66 1662.6C1779.76 1339.02 1729.87 1015.44 1679.98 691.859L1529.99 896.672C1573.59 1188.3 1617.19 1479.94 1660.79 1771.57C1366.85 1821.74 1072.92 1871.93 778.983 1922.1L620.363 2138.69C944.212 2085.14 1268.06 2031.58 1591.91 1978.03C1593.63 2071.97 1635.37 2164.2 1713.27 2225.39C1848.29 2331.45 2040.75 2304.07 2143.16 2164.25C2245.56 2024.42 2219.13 1825.09 2084.12 1719.03C2008.66 1659.76 1915.25 1642.18 1829.66 1662.6Z" fill="#2C3588"/>
<path d="M912.398 1216.9L992.21 1208.05C999.736 1292.17 995.398 1358.85 979.189 1408.07C962.981 1457.28 936.242 1484.94 898.981 1491.07C861.09 1497.29 825.429 1476.7 792.002 1429.3C758.585 1381.9 736.033 1319.98 724.335 1243.55C712.559 1166.59 715.663 1099.73 733.648 1042.98C751.637 986.234 779.689 954.728 817.814 948.463C855.325 942.296 890.57 962.895 923.544 1010.25C946.377 1042.96 966.257 1090.51 983.189 1152.9L903.814 1177.19C886.106 1122.17 864.585 1096.73 839.252 1100.9C823.096 1103.56 811.512 1117.1 804.502 1141.53C797.486 1165.96 796.658 1195.71 802.023 1230.78C807.2 1264.58 816.632 1291.68 830.314 1312.07C844.007 1332.44 858.736 1341.34 874.502 1338.75C890.528 1336.12 901.804 1324.31 908.335 1303.32C914.861 1282.32 916.215 1253.51 912.398 1216.9Z" fill="white"/>
<path d="M1239.75 1103.19L1257.85 1221.36L1188.75 1232.71C1179.34 1234.27 1173 1237.44 1169.73 1242.23C1166.46 1247.01 1165.58 1254.33 1167.08 1264.17C1168.79 1275.31 1171.91 1282.31 1176.44 1285.15C1180.98 1288 1189.42 1288.4 1201.77 1286.36L1272.98 1274.65L1296.21 1426.25L1213 1439.94C1173.88 1446.37 1141.85 1437.37 1116.89 1412.92C1091.94 1388.48 1075.42 1349.95 1067.35 1297.34L1035.5 1089.36C1027.72 1038.58 1031.47 997.587 1046.75 966.379C1062.03 935.17 1087.39 916.65 1122.85 910.816L1214.94 895.67L1238.27 1048.05L1170.73 1059.17C1152.45 1062.17 1144.66 1072.48 1147.35 1090.09C1148.95 1100.45 1152.23 1107.29 1157.19 1110.59C1162.16 1113.89 1170.21 1114.63 1181.33 1112.8L1239.75 1103.19Z" fill="white"/>
<path d="M1414.06 862.926L1495.33 1393.51L1389.43 1410.93L1308.16 880.342L1414.06 862.926Z" fill="white"/>
</svg>
